<?xml version="1.0" standalone="no"?><!DOCTYPE svg PUBLIC "-//W3C//DTD SVG 1.1//EN" "http://www.w3.org/Graphics/SVG/1.1/DTD/svg11.dtd"><svg width="32.03125" height="32" viewBox="0 0 32.03125 32" version="1.1" xmlns="http://www.w3.org/2000/svg" xmlns:xlink="http://www.w3.org/1999/xlink"><defs><style type="text/css"><![CDATA[
@font-face { font-family: ifont; src: url("http://at.alicdn.com/t/font_1442373896_4754455.eot?#iefix") format("embedded-opentype"), url("http://at.alicdn.com/t/font_1442373896_4754455.woff") format("woff"), url("http://at.alicdn.com/t/font_1442373896_4754455.ttf") format("truetype"), url("http://at.alicdn.com/t/font_1442373896_4754455.svg#ifont") format("svg"); }

]]></style></defs><g class="transform-group"><g transform="scale(0.03125, 0.03125)"><path d="M929.885184 106.042368 92.024832 106.042368c-50.601984 0-92.024832 41.201664-92.024832 91.56096l0 102.294528 1022.019584 0 0-102.294528C1022.020608 147.244032 980.552704 106.042368 929.885184 106.042368zM0.001024 822.295552c0 50.357248 41.422848 91.583488 92.024832 91.583488l837.860352 0c50.666496 0 92.135424-41.22624 92.135424-91.583488L1022.021632 437.238784 0.001024 437.238784 0.001024 822.295552zM836.011008 686.948352l75.757568 0 0 86.171648-75.757568 0L836.011008 686.948352zM738.596864 686.948352l75.712512 0 0 86.171648-75.712512 0L738.596864 686.948352zM645.228544 686.948352l75.78112 0 0 86.171648-75.78112 0L645.228544 686.948352z" fill="#6bc"></path></g></g></svg>