<svg style="width:308px;height:308px" xmlns="http://www.w3.org/2000/svg" width="1024" height="1024" viewBox="0 0 1024 1024"><path class="svgpath" data-index="path_0" fill="#272636" d="M512 988.8C249.6 988.8 35.2 774.4 35.2 512S249.6 35.2 512 35.2 988.8 249.6 988.8 512 774.4 988.8 512 988.8zm256-553.6l-291.2 288c-48 48-124.8 48-172.8 0-48-48-48-124.8 0-172.8l262.4-259.2c32-32 83.2-32 115.2 0s32 83.2 0 115.2L419.2 665.6c-16 16-41.6 16-57.6 0s-16-41.6 0-57.6l233.6-230.4-28.8-28.8-233.6 230.4c-32 32-32 83.2 0 115.2s83.2 32 115.2 0l262.4-259.2c48-48 48-124.8 0-172.8-48-48-124.8-48-172.8 0l-275.2 272c-51.2 64-44.8 156.8 12.8 214.4 60.8 57.6 153.6 64 217.6 12.8l304-300.8-28.8-25.6z"/></svg>