<?xml version="1.0" encoding="utf-8"?>
<!DOCTYPE svg PUBLIC "-//W3C//DTD SVG 1.1//EN" "http://www.w3.org/Graphics/SVG/1.1/DTD/svg11.dtd">
<svg style="width:308px;height:308px;" version="1.1" id="图形" xmlns="http://www.w3.org/2000/svg" xmlns:xlink="http://www.w3.org/1999/xlink" x="0px" y="0px" width="1024px" height="1024px" viewBox="0 0 1024 1024" enable-background="new 0 0 1024 1024" xml:space="preserve">
  <path class="svgpath" data-index="path_0" fill="#ffffff" d="M512 960C264.576 960 64 759.424 64 512 64 264.576 264.576 64 512 64c247.424 0 448 200.576 448 448C960 759.424 759.424 960 512 960zM512 148C310.976 148 148 310.976 148 512c0 94.016 35.936 179.424 94.464 244 52.736-25.504 33.376-4.288 102.336-32.672 70.592-29.024 87.296-39.136 87.296-39.136l0.672-66.88c0 0-26.432-20.064-34.656-83.008-16.544 4.736-22.016-19.264-22.976-34.56-0.896-14.784-9.568-60.928 10.592-56.768-4.128-30.816-7.104-58.592-5.632-73.312 5.056-51.68 55.2-105.664 132.448-109.6 90.848 3.936 126.848 57.888 131.872 109.568 1.472 14.72-1.76 42.528-5.888 73.28 20.192-4.128 11.424 41.952 10.432 56.736-0.896 15.296-6.496 39.232-22.976 34.496-8.256 62.912-34.688 82.848-34.688 82.848l0.608 66.528c0 0 16.704 9.472 87.296 38.496 68.992 28.384 49.6 8.416 102.336 33.984 58.496-64.576 94.464-149.984 94.464-244C876 310.976 713.024 148 512 148z" />

</svg>
