<?xml version="1.0" encoding="utf-8"?>
<!DOCTYPE svg PUBLIC "-//W3C//DTD SVG 1.1//EN" "http://www.w3.org/Graphics/SVG/1.1/DTD/svg11.dtd">
<svg style="width:308px;height:308px;" version="1.1" id="图形" xmlns="http://www.w3.org/2000/svg" xmlns:xlink="http://www.w3.org/1999/xlink" x="0px" y="0px" width="1024px" height="1024px" viewBox="0 0 1024 1024" enable-background="new 0 0 1024 1024" xml:space="preserve">
  <path class="svgpath" data-index="path_0" fill="#ffffff" d="M620.8 1011.2C620.8 1011.2 620.8 1011.2 620.8 1011.2 851.2 960 1024 755.2 1024 512c0-281.6-230.4-512-512-512S0 230.4 0 512s230.4 512 512 512c19.2 0 38.4 0 51.2 0 0 0 6.4 0 6.4 0C588.8 1017.6 601.6 1017.6 620.8 1011.2zM512 32c262.4 0 480 217.6 480 480 0 121.6-44.8 230.4-121.6 313.6l0 0c-32-83.2-102.4-166.4-204.8-166.4C595.2 659.2 576 704 505.6 704c-64 0-89.6-44.8-160-44.8-96 0-166.4 76.8-198.4 160-70.4-83.2-115.2-192-115.2-307.2C32 249.6 249.6 32 512 32z" />
<path class="svgpath" data-index="path_1" fill="#ffffff" d="M512 428.8m-198.4 0a3.1 3.1 0 1 0 396.8 0 3.1 3.1 0 1 0 -396.8 0Z" />

</svg>
